<svg xmlns="http://www.w3.org/2000/svg" viewBox="0 0 124 124"><defs><style>.cls-1{fill:#fff92e;stroke:#66145a;stroke-miterlimit:10;stroke-width:2px;}.cls-2{fill:#fefefe;}</style></defs><title>Recurso 6</title><g id="Capa_2" data-name="Capa 2"><g id="Capa_1-2" data-name="Capa 1"><circle class="cls-1" cx="62" cy="62" r="61"/><path class="cls-2" d="M90.5,57.5V77A27.5,27.5,0,0,1,63,104.5h0A29.58,29.58,0,0,1,33.5,75V62.25"/><path d="M63,105.5C46.47,105.5,32.5,92,32.5,76V62.25h2V76c0,14.91,13,27.5,28.5,27.5,14.86,0,26.5-12.08,26.5-27.5V57.5h2V76C91.5,92.54,79,105.5,63,105.5Z"/><path class="cls-2" d="M44.5,61.62V34.38c0-4.9,1.91-8.88,5.5-8.88h0c3.59,0,5.5,4,5.5,8.88V60.62"/><path d="M45.5,61.62h-2V34.38c0-6,2.55-9.88,6.5-9.88s6.5,3.88,6.5,9.88V59.62a1,1,0,0,1-1,1h0a1,1,0,0,1-1-1V34.38c0-3.92-1.39-7.88-4.5-7.88s-4.5,4-4.5,7.88Z"/><path class="cls-2" d="M33.5,63.35V44.65c0-3.95,1.91-7.15,5.5-7.15h0c3.59,0,5.5,3.2,5.5,7.15v18.7"/><path d="M44.5,63.35h0a1,1,0,0,1-1-1V44.65c0-2.84-1.18-6.15-4.5-6.15s-4.5,3.31-4.5,6.15v18.7h-2V44.65c0-4.87,2.61-8.15,6.5-8.15s6.5,3.28,6.5,8.15v17.7A1,1,0,0,1,44.5,63.35Z"/><path class="cls-2" d="M55.5,60.75V29.25c0-5.38,2.08-9.75,6-9.75h0c3.92,0,6,4.37,6,9.75v31.5"/><path d="M67.5,60.75h0a1,1,0,0,1-1-1V29.25c0-4.36-1.55-8.75-5-8.75s-5,4.39-5,8.75v30.5a1,1,0,0,1-1,1h0a1,1,0,0,1-1-1V29.25c0-6.53,2.75-10.75,7-10.75s7,4.22,7,10.75v30.5A1,1,0,0,1,67.5,60.75Z"/><path class="cls-2" d="M67.5,60.83V38.17c0-9.79,2.08-13.67,6-13.67h0c3.92,0,6,3.88,6,8.67V59.83"/><path d="M67.5,60.83h0a1,1,0,0,1-1-1V38.17c0-6.3.73-14.67,7-14.67,4.19,0,7,3.88,7,9.67V59.83h-2V33.17c0-3.54-1.31-7.67-5-7.67-2.15,0-5,1.31-5,12.67V59.83A1,1,0,0,1,67.5,60.83Z"/><path class="cls-2" d="M90.5,75.35V56.65c0-3.95-1.91-7.15-5.5-7.15h0c-3.59,0-5.5,3.2-5.5,7.15v17a1.94,1.94,0,0,1-2,1.94c-3.91,0-12.72,1-17.3,10.12"/><path d="M60.27,85.76h0a1,1,0,0,1-.43-1.37c5-8.9,14-9.8,17.72-9.76a.82.82,0,0,0,.66-.27,1,1,0,0,0,.28-.67v-17c0-4.87,2.61-8.15,6.5-8.15s6.5,3.28,6.5,8.15v18.7l-2,1V56.65c0-2.84-1.18-6.15-4.5-6.15s-4.5,3.31-4.5,6.15V73.54a3.12,3.12,0,0,1-.82,2.18,2.88,2.88,0,0,1-2.14.91c-3.33,0-11.45.77-15.94,8.71A1,1,0,0,1,60.27,85.76Z"/></g></g></svg>