<?xml version="1.0" encoding="utf-8"?>
<!-- Generator: Adobe Illustrator 22.0.0, SVG Export Plug-In . SVG Version: 6.00 Build 0)  -->
<svg version="1.1" id="Capa_1" xmlns="http://www.w3.org/2000/svg" xmlns:xlink="http://www.w3.org/1999/xlink" x="0px" y="0px"
	 viewBox="0 0 124.6 124.4" style="enable-background:new 0 0 124.6 124.4;" xml:space="preserve">
<style type="text/css">
	.st0{fill:#D14EA2;stroke:#66145A;stroke-width:2;stroke-miterlimit:10;}
	.st1{fill:#FFFFFF;}
</style>
<g>
	<circle class="st0" cx="62.3" cy="62.2" r="61"/>
	<g>
		<path class="st1" d="M91,58.4c-1.3,1.1-3.1,1.8-5.3,1.8H80v3.3c0,1.4-1.1,2.6-2.5,2.8c-3.8,0.3-12.9,2-16.9,9.5
			c-0.3,0.5-0.8,0.7-1.3,0.5l0,0c-0.5-0.2-0.7-0.9-0.5-1.4c4.5-8.4,14.3-10.2,18.5-10.5c0.4,0,0.7-0.4,0.7-0.8l0-3.3h-4.8
			c-2.5,0-4.5-0.9-5.8-2.4c-1.2,1.5-2.9,2.4-4.9,2.4c-2.5,0-4.4-1.2-5.5-3.2c-1.1,2-3,3.2-5.5,3.2c-2.4,0-4.3-1.2-5.4-3.1
			C45,59,43,60.2,40.5,60.2c-1.8,0-3.4-0.6-4.5-1.7v7.6c0,16,11.2,28.1,26.1,28.1h0.9C78.4,94.2,91,81.6,91,66.1V58.4z"/>
		<path d="M93,53.2c-0.2-3.6-3.1-6-7.2-6H80v-9.6c0-3.8-2.6-6.4-6.5-6.4c-2,0-3.7,0.7-4.8,1.9c-0.8-3-3.1-4.9-6.2-4.9
			c-2.5,0-4.4,1.2-5.5,3.2c-1.1-2-3-3.2-5.5-3.2c-3.1,0-5.4,1.9-6.2,5c-1.1-1.3-2.8-2-4.8-2c-3.9,0-6.5,2.8-6.5,6.9v14.5v0.8v12.8
			c0,17.1,12.1,30.1,28.1,30.1h0.9C79.5,96.2,93,82.7,93,66.1L93,53.2L93,53.2z M62.9,94.2h-0.9C47.2,94.2,36,82.1,36,66.1v-7.6
			c1.1,1.1,2.7,1.7,4.5,1.7c2.5,0,4.5-1.2,5.6-3.1c1.1,1.9,3,3.1,5.4,3.1c2.5,0,4.4-1.2,5.5-3.2c1.1,2,3,3.2,5.5,3.2
			c2.1,0,3.8-0.8,4.9-2.4c1.3,1.5,3.3,2.4,5.8,2.4H78l0,3.3c0,0.4-0.3,0.7-0.7,0.8c-4.2,0.4-14,2.2-18.5,10.5
			c-0.3,0.5-0.1,1.1,0.5,1.4l0,0c0.5,0.2,1,0,1.3-0.5c4-7.5,13.1-9.1,16.9-9.5c1.4-0.1,2.5-1.3,2.5-2.8v-3.3h5.8
			c2.2,0,4-0.7,5.3-1.8v7.7C91,81.6,78.4,94.2,62.9,94.2z M36,52.5V38c0-2.3,1.2-4.9,4.5-4.9S45,35.7,45,38v14.6v0.6
			c0,2.3-1.2,4.9-4.5,4.9S36,55.7,36,53.3V52.5z M47,38v-2.4c0-2.5,1.2-5.5,4.5-5.5s4.5,3,4.5,5.5v17c0,2.5-1.2,5.5-4.5,5.5
			s-4.5-3-4.5-5.5V38z M58,35.7c0-2.5,1.2-5.5,4.5-5.5s4.5,3,4.5,5.5v1.9v11.6v0.9h0c-0.7,1-1,2.2-1,3.6c0,0.8,0.1,1.5,0.3,2.1
			c-0.5,1.1-1.6,2.4-3.8,2.4c-3.3,0-4.5-3-4.5-5.5V35.7z M73.5,33.2c3.3,0,4.5,2.3,4.5,4.4v9.6h-4.8c-1.7,0-3.1,0.4-4.3,1.1V37.6
			C69,35.4,70.2,33.2,73.5,33.2z M91,53.7c0,3.3-2.7,4.5-5.3,4.5H73.3c-2.5,0-5.3-1.2-5.3-4.5s2.7-4.5,5.3-4.5h12.5
			C88.3,49.2,91,50.3,91,53.7z"/>
		<path class="st1" d="M51.5,58.2c3.3,0,4.5-3,4.5-5.5v-17c0-2.5-1.2-5.5-4.5-5.5s-4.5,3-4.5,5.5V38v14.6
			C47,55.2,48.2,58.2,51.5,58.2z"/>
		<path class="st1" d="M40.5,58.2c3.3,0,4.5-2.5,4.5-4.9v-0.6V38c0-2.3-1.2-4.9-4.5-4.9S36,35.7,36,38v14.5v0.8
			C36,55.7,37.2,58.2,40.5,58.2z"/>
		<path class="st1" d="M73.3,47.2H78v-9.6c0-2.1-1.2-4.4-4.5-4.4S69,35.4,69,37.6v10.6C70.2,47.5,71.6,47.2,73.3,47.2z"/>
		<path class="st1" d="M62.5,58.2c2.2,0,3.3-1.3,3.8-2.4c-0.2-0.7-0.3-1.4-0.3-2.1c0-1.4,0.4-2.6,1-3.6h0v-0.9V37.6v-1.9
			c0-2.5-1.2-5.5-4.5-5.5s-4.5,3-4.5,5.5v17C58,55.2,59.2,58.2,62.5,58.2z"/>
		<path class="st1" d="M85.8,49.2H73.3c-2.5,0-5.3,1.2-5.3,4.5s2.7,4.5,5.3,4.5h12.5c2.5,0,5.3-1.2,5.3-4.5S88.3,49.2,85.8,49.2z"/>
	</g>
</g>
</svg>
