<svg xmlns="http://www.w3.org/2000/svg" viewBox="0 0 124 124"><defs><style>.cls-1{fill:#d14ea2;stroke:#66145a;stroke-miterlimit:10;stroke-width:2px;}.cls-2{fill:#fff;}</style></defs><title>Recurso 7</title><g id="Capa_2" data-name="Capa 2"><g id="Capa_1-2" data-name="Capa 1"><circle class="cls-1" cx="62" cy="62" r="61"/><path class="cls-2" d="M90.75,58.21A7.72,7.72,0,0,1,85.5,60H79.75v3.33a2.76,2.76,0,0,1-2.51,2.76c-3.82.34-12.9,2-16.91,9.46A1,1,0,0,1,59,76h0a1,1,0,0,1-.46-1.39C63,66.25,72.9,64.47,77.06,64.09a.75.75,0,0,0,.69-.76V60H73a7.42,7.42,0,0,1-5.81-2.37,6.32,6.32,0,0,1-10.44-.85,6.31,6.31,0,0,1-10.92.14A6.15,6.15,0,0,1,40.25,60a6.4,6.4,0,0,1-4.5-1.69v7.63C35.75,81.94,47,94,61.81,94h.88A28.06,28.06,0,0,0,90.75,65.94Z"/><path d="M92.73,53c-.24-3.61-3.08-6-7.23-6H79.75V37.42A6.12,6.12,0,0,0,73.25,31a6.46,6.46,0,0,0-4.83,1.91A6.2,6.2,0,0,0,62.25,28a6,6,0,0,0-5.5,3.22A6,6,0,0,0,51.25,28a6.21,6.21,0,0,0-6.19,5,6.34,6.34,0,0,0-4.81-2c-3.89,0-6.5,2.75-6.5,6.85V65.94C33.75,83.08,45.81,96,61.81,96h.88A30.06,30.06,0,0,0,92.75,65.94V53Zm-30,41h-.88C47,94,35.75,81.94,35.75,65.94V58.31A6.4,6.4,0,0,0,40.25,60a6.15,6.15,0,0,0,5.58-3.08,6.31,6.31,0,0,0,10.92-.14,6.32,6.32,0,0,0,10.44.85A7.42,7.42,0,0,0,73,60h4.75v3.33a.75.75,0,0,1-.69.76c-4.16.38-14,2.16-18.5,10.53A1,1,0,0,0,59,76h0a1,1,0,0,0,1.29-.47c4-7.51,13.09-9.12,16.91-9.46a2.76,2.76,0,0,0,2.51-2.76V60H85.5a7.72,7.72,0,0,0,5.25-1.79v7.73A28.06,28.06,0,0,1,62.69,94ZM35.75,52.38V37.85c0-2.34,1.18-4.85,4.5-4.85s4.5,2.51,4.5,4.85v15.3c0,2.34-1.18,4.85-4.5,4.85s-4.5-2.51-4.5-4.85Zm11-14.53V35.5c0-2.54,1.18-5.5,4.5-5.5s4.5,3,4.5,5.5v17c0,2.54-1.18,5.5-4.5,5.5s-4.5-3-4.5-5.5Zm11-2.35c0-2.54,1.18-5.5,4.5-5.5s4.5,3,4.5,5.5V49.94h0a6.39,6.39,0,0,0-1,3.56,6.94,6.94,0,0,0,.33,2.13A4,4,0,0,1,62.25,58c-3.32,0-4.5-3-4.5-5.5ZM73.25,33a4.14,4.14,0,0,1,4.5,4.42V47H73a8.34,8.34,0,0,0-4.25,1.06V37.42A4.14,4.14,0,0,1,73.25,33Zm17.5,20.5c0,3.32-2.71,4.5-5.25,4.5H73c-2.54,0-5.25-1.18-5.25-4.5S70.46,49,73,49H85.5C88,49,90.75,50.18,90.75,53.5Z"/><path class="cls-2" d="M51.25,58c3.32,0,4.5-3,4.5-5.5v-17c0-2.54-1.18-5.5-4.5-5.5s-4.5,3-4.5,5.5v17C46.75,55,47.93,58,51.25,58Z"/><path class="cls-2" d="M40.25,58c3.32,0,4.5-2.51,4.5-4.85V37.85c0-2.34-1.18-4.85-4.5-4.85s-4.5,2.51-4.5,4.85v15.3C35.75,55.49,36.93,58,40.25,58Z"/><path class="cls-2" d="M73,47h4.75V37.42A4.14,4.14,0,0,0,73.25,33a4.14,4.14,0,0,0-4.5,4.42V48.06A8.34,8.34,0,0,1,73,47Z"/><path class="cls-2" d="M62.25,58a4,4,0,0,0,3.83-2.37,6.94,6.94,0,0,1-.33-2.13,6.39,6.39,0,0,1,1-3.56h0V35.5c0-2.54-1.18-5.5-4.5-5.5s-4.5,3-4.5,5.5v17C57.75,55,58.93,58,62.25,58Z"/><path class="cls-2" d="M85.5,49H73c-2.54,0-5.25,1.18-5.25,4.5S70.46,58,73,58H85.5c2.54,0,5.25-1.18,5.25-4.5S88,49,85.5,49Z"/></g></g></svg>