<svg xmlns="http://www.w3.org/2000/svg" viewBox="0 0 124 124"><defs><style>.cls-1{fill:#1ad7e5;stroke:#66145a;stroke-miterlimit:10;stroke-width:2px;}.cls-2{fill:#fff;}.cls-3{fill:#fefefe;}</style></defs><title>Recurso 8</title><g id="Capa_2" data-name="Capa 2"><g id="Capa_1-2" data-name="Capa 1"><circle class="cls-1" cx="62" cy="62" r="61"/><polygon class="cls-2" points="80 72.5 53 72.5 53 48.5 80 53.5 80 72.5"/><line class="cls-3" x1="62.5" y1="57.5" x2="62.5" y2="57.5"/><path class="cls-3" d="M89,63.5V75.38C89,92,77.69,105.5,62.5,105.5h0C47.31,105.5,35,92,35,75.38V59.5"/><path d="M62.5,106.5c-15.71,0-28.5-14-28.5-31.12V59.5h2V75.38c0,16.06,11.89,29.12,26.5,29.12C76.8,104.5,88,91.71,88,75.38V63.5h2V75.38C90,92.83,77.92,106.5,62.5,106.5Z"/><path class="cls-3" d="M57,49.05V27c0-4.67,1.91-8.45,5.5-8.45h0c3.59,0,5.5,3.78,5.5,8.45V54.5"/><path d="M68,54.5h0a1,1,0,0,1-1-1V27c0-3.44-1.18-7.45-4.5-7.45S58,23.51,58,27v21.1a1,1,0,0,1-1,1h0a1,1,0,0,1-1-1V27c0-5.65,2.61-9.45,6.5-9.45S69,21.3,69,27V53.5A1,1,0,0,1,68,54.5Z"/><path class="cls-3" d="M51.5,68.5h0c-3.59,0-5.5-2.72-5.5-6.07V46.57c0-3.35,1.91-6.07,5.5-6.07h0c3.59,0,5.5,2.72,5.5,6.07V62.43C57,65.78,55.09,68.5,51.5,68.5Z"/><path d="M51.5,69.5c-3.89,0-6.5-2.84-6.5-7.07V46.57c0-4.23,2.61-7.07,6.5-7.07S58,42.34,58,46.57V62.43C58,66.66,55.39,69.5,51.5,69.5Zm0-28c-3.32,0-4.5,2.62-4.5,5.07V62.43c0,2.45,1.18,5.07,4.5,5.07S56,64.88,56,62.43V46.57C56,44.12,54.82,41.5,51.5,41.5Z"/><path class="cls-3" d="M40.5,68.5h0A5.14,5.14,0,0,1,35,63.08V48.92a5.14,5.14,0,0,1,5.5-5.42h0A5.14,5.14,0,0,1,46,48.92V63.08A5.14,5.14,0,0,1,40.5,68.5Z"/><path d="M40.5,69.5A6.12,6.12,0,0,1,34,63.08V48.92a6.12,6.12,0,0,1,6.5-6.42A6.12,6.12,0,0,1,47,48.92V63.08A6.12,6.12,0,0,1,40.5,69.5Zm0-25A4.14,4.14,0,0,0,36,48.92V63.08a4.14,4.14,0,0,0,4.5,4.42A4.14,4.14,0,0,0,45,63.08V48.92A4.14,4.14,0,0,0,40.5,44.5Z"/><path class="cls-3" d="M80,58.5l6.84-26.28c1.31-4.48.34-8.7-3.48-9.82h0c-3.82-1.12-6.92,1.91-8.23,6.39L68,54.5"/><path d="M80,58.5h0a1,1,0,0,1-.72-1.22L85.87,32a9.82,9.82,0,0,0,.2-5.62,4.26,4.26,0,0,0-3-3c-3.61-1.06-6,2.42-7,5.72L69.23,53.8a1,1,0,0,1-1.23.7h0a1,1,0,0,1-.7-1.23l6.87-24.74c1.59-5.44,5.4-8.28,9.47-7.09A6.24,6.24,0,0,1,88,25.75a11.67,11.67,0,0,1-.18,6.75L81.22,57.78A1,1,0,0,1,80,58.5Z"/><path class="cls-3" d="M89,64h0c0,3.59-2.23,5.5-5,5.5H71c-2.75,0-5-1.91-5-5.5h0c0-3.59,2.23-5.5,5-5.5H84C86.77,58.5,89,60.41,89,64Z"/><path d="M84,70.5H71c-3.58,0-6-2.61-6-6.5s2.4-6.5,6-6.5H84c3.58,0,6,2.61,6,6.5S87.6,70.5,84,70.5Zm-13-11c-2.45,0-4,1.72-4,4.5s1.53,4.5,4,4.5H84c2.45,0,4-1.72,4-4.5s-1.53-4.5-4-4.5Z"/><path d="M59.29,85.1h0a1,1,0,0,1-.46-1.38c4.46-8.37,14.34-10.16,18.5-10.53l.69-.77V68.75h2v3.66a2.75,2.75,0,0,1-2.51,2.76c-3.82.35-12.9,2-16.91,9.47A1,1,0,0,1,59.29,85.1Z"/></g></g></svg>